<svg width="47" height="47" viewBox="0 0 47 47" fill="none" xmlns="http://www.w3.org/2000/svg">
<g id="briefcase">
<path id="Vector" d="M39.1665 13.7084H7.83317C5.67006 13.7084 3.9165 15.4619 3.9165 17.625V37.2084C3.9165 39.3715 5.67006 41.125 7.83317 41.125H39.1665C41.3296 41.125 43.0832 39.3715 43.0832 37.2084V17.625C43.0832 15.4619 41.3296 13.7084 39.1665 13.7084Z" stroke="#73C3F4" stroke-width="2" stroke-linecap="round" stroke-linejoin="round"/>
<path id="Vector_2" d="M31.3332 41.125V9.79167C31.3332 8.7529 30.9205 7.75668 30.186 7.02216C29.4515 6.28765 28.4553 5.875 27.4165 5.875H19.5832C18.5444 5.875 17.5482 6.28765 16.8137 7.02216C16.0792 7.75668 15.6665 8.7529 15.6665 9.79167V41.125" stroke="#73C3F4" stroke-width="2" stroke-linecap="round" stroke-linejoin="round"/>
</g>
</svg>
