<svg width="132" height="30" viewBox="0 0 132 30" fill="none" xmlns="http://www.w3.org/2000/svg">
<g id="Group 131">
<g id="Group 96">
<circle id="Ellipse 8" cx="66" cy="15" r="15" fill="#DD71C6"/>
<g id="Group">
<g id="Group_2">
<path id="Vector" d="M73 10.3466C72.4794 10.575 71.9246 10.7264 71.3462 10.7999C71.9412 10.4446 72.3954 9.88637 72.6089 9.2135C72.0541 9.54425 71.4416 9.77788 70.7889 9.90825C70.2621 9.34738 69.5114 9 68.6924 9C67.1034 9 65.8241 10.2898 65.8241 11.8709C65.8241 12.0984 65.8434 12.3171 65.8906 12.5254C63.5045 12.409 61.3931 11.2654 59.9747 9.52325C59.7271 9.95288 59.5819 10.4446 59.5819 10.974C59.5819 11.968 60.0938 12.8491 60.8568 13.3593C60.3956 13.3505 59.9433 13.2166 59.56 13.0058C59.56 13.0145 59.56 13.0259 59.56 13.0373C59.56 14.432 60.5549 15.5905 61.8595 15.8574C61.6259 15.9212 61.3712 15.9519 61.107 15.9519C60.9232 15.9519 60.7377 15.9414 60.5636 15.9029C60.9355 17.0395 61.9908 17.8751 63.2455 17.9023C62.269 18.6661 61.0291 19.1264 59.6869 19.1264C59.4515 19.1264 59.2257 19.1159 59 19.087C60.2714 19.9069 61.7781 20.375 63.403 20.375C68.6845 20.375 71.572 16 71.572 12.2077C71.572 12.0809 71.5676 11.9584 71.5615 11.8368C72.1311 11.4325 72.6097 10.9276 73 10.3466Z" fill="white"/>
</g>
</g>
</g>
<g id="Group 97">
<circle id="Ellipse 9" cx="117" cy="15" r="15" fill="#DD71C6"/>
<path id="Vector_2" d="M115.693 22V15.4308H114V13.0656H115.693V11.0454C115.693 9.45785 116.693 8 118.997 8C119.93 8 120.62 8.09177 120.62 8.09177L120.566 10.3005C120.566 10.3005 119.862 10.2935 119.094 10.2935C118.263 10.2935 118.13 10.6864 118.13 11.3385V13.0656H120.632L120.523 15.4308H118.13V22H115.693Z" fill="white"/>
</g>
<g id="Group 98">
<circle id="Ellipse 7" cx="15" cy="15" r="15" fill="#DD71C6"/>
<path id="Vector_3" d="M14.9981 12.6657C13.7128 12.6657 12.6638 13.7146 12.6638 15C12.6638 16.2854 13.7128 17.3343 14.9981 17.3343C16.2835 17.3343 17.3324 16.2854 17.3324 15C17.3324 13.7146 16.2835 12.6657 14.9981 12.6657ZM21.9992 15C21.9992 14.0333 22.008 13.0754 21.9537 12.1105C21.8994 10.9898 21.6437 9.99512 20.8242 9.17556C20.0029 8.35426 19.01 8.10034 17.8893 8.04605C16.9226 7.99176 15.9648 8.00052 14.9999 8.00052C14.0332 8.00052 13.0754 7.99176 12.1105 8.04605C10.9897 8.10034 9.99508 8.35601 9.17554 9.17556C8.35425 9.99687 8.10034 10.9898 8.04605 12.1105C7.99177 13.0772 8.00052 14.0351 8.00052 15C8.00052 15.9649 7.99177 16.9246 8.04605 17.8895C8.10034 19.0102 8.356 20.0049 9.17554 20.8244C9.99683 21.6457 10.9897 21.8997 12.1105 21.9539C13.0771 22.0082 14.035 21.9995 14.9999 21.9995C15.9665 21.9995 16.9244 22.0082 17.8893 21.9539C19.01 21.8997 20.0047 21.644 20.8242 20.8244C21.6455 20.0031 21.8994 19.0102 21.9537 17.8895C22.0097 16.9246 21.9992 15.9667 21.9992 15ZM14.9981 18.5917C13.0106 18.5917 11.4065 16.9876 11.4065 15C11.4065 13.0124 13.0106 11.4083 14.9981 11.4083C16.9857 11.4083 18.5897 13.0124 18.5897 15C18.5897 16.9876 16.9857 18.5917 14.9981 18.5917ZM18.7368 12.1C18.2728 12.1 17.898 11.7253 17.898 11.2612C17.898 10.7972 18.2728 10.4224 18.7368 10.4224C19.2009 10.4224 19.5756 10.7972 19.5756 11.2612C19.5758 11.3714 19.5542 11.4806 19.5121 11.5824C19.47 11.6842 19.4082 11.7767 19.3303 11.8547C19.2523 11.9326 19.1598 11.9944 19.058 12.0365C18.9562 12.0786 18.847 12.1002 18.7368 12.1Z" fill="white"/>
</g>
</g>
</svg>
