<svg width="47" height="47" viewBox="0 0 47 47" fill="none" xmlns="http://www.w3.org/2000/svg">
<g id="message-circle">
<path id="Vector" d="M41.125 22.5209C41.1317 25.1056 40.5278 27.6554 39.3625 29.9626C37.9808 32.7272 35.8566 35.0526 33.2279 36.6782C30.5992 38.3039 27.5699 39.1655 24.4792 39.1667C21.8944 39.1735 19.3446 38.5696 17.0375 37.4042L5.875 41.1251L9.59583 29.9626C8.43049 27.6554 7.82659 25.1056 7.83333 22.5209C7.83453 19.4302 8.6962 16.4008 10.3218 13.7721C11.9475 11.1435 14.2728 9.01929 17.0375 7.63756C19.3446 6.47221 21.8944 5.86832 24.4792 5.87506H25.4583C29.5402 6.10025 33.3955 7.82313 36.2862 10.7138C39.1769 13.6045 40.8998 17.4599 41.125 21.5417V22.5209Z" stroke="#DD71C6" stroke-width="2" stroke-linecap="round" stroke-linejoin="round"/>
</g>
</svg>
